HIERARCHY
ROOT mixamorig:Hips
{
	OFFSET -0.000008 104.274872 1.554316
	CHANNELS 6 Xposition Yposition Zposition Xrotation Yrotation Zrotation
	JOINT mixamorig:Spine
	{
		OFFSET -0.000005 10.181595 0.131519
		CHANNELS 6 Xposition Yposition Zposition Xrotation Yrotation Zrotation
		JOINT mixamorig:Spine1
		{
			OFFSET -0.000000 9.893959 -1.470707
			CHANNELS 6 Xposition Yposition Zposition Xrotation Yrotation Zrotation
			JOINT mixamorig:Spine2
			{
				OFFSET -0.000000 9.220757 -1.370641
				CHANNELS 6 Xposition Yposition Zposition Xrotation Yrotation Zrotation
				JOINT mixamorig:Neck
				{
					OFFSET 0.000001 16.740417 -2.049036
					CHANNELS 6 Xposition Yposition Zposition Xrotation Yrotation Zrotation
					JOINT mixamorig:Head
					{
						OFFSET 0.000000 9.617874 1.685006
						CHANNELS 6 Xposition Yposition Zposition Xrotation Yrotation Zrotation
						JOINT mixamorig:HeadTop_End
						{
							OFFSET 0.000002 22.037354 7.501101
							CHANNELS 6 Xposition Yposition Zposition Xrotation Yrotation Zrotation
							End Site
							{
								OFFSET 0.000168 2310.654297 -282.823242
							}
						}
					}
				}
				JOINT mixamorig:RightShoulder
				{
					OFFSET -4.569970 11.014908 -2.160885
					CHANNELS 6 Xposition Yposition Zposition Xrotation Yrotation Zrotation
					JOINT mixamorig:RightArm
					{
						OFFSET -10.592851 -0.524811 -2.232101
						CHANNELS 6 Xposition Yposition Zposition Xrotation Yrotation Zrotation
						JOINT mixamorig:RightForeArm
						{
							OFFSET -27.841511 0.000031 -0.000004
							CHANNELS 6 Xposition Yposition Zposition Xrotation Yrotation Zrotation
							JOINT mixamorig:RightHand
							{
								OFFSET -28.328831 -0.000015 0.000015
								CHANNELS 6 Xposition Yposition Zposition Xrotation Yrotation Zrotation
								JOINT mixamorig:RightHandThumb1
								{
									OFFSET -2.464806 -1.573990 2.681852
									CHANNELS 6 Xposition Yposition Zposition Xrotation Yrotation Zrotation
									JOINT mixamorig:RightHandThumb2
									{
										OFFSET -3.215179 -1.872803 1.924282
										CHANNELS 6 Xposition Yposition Zposition Xrotation Yrotation Zrotation
										JOINT mixamorig:RightHandThumb3
										{
											OFFSET -2.654831 -1.527969 1.512609
											CHANNELS 6 Xposition Yposition Zposition Xrotation Yrotation Zrotation
											JOINT mixamorig:RightHandThumb4
											{
												OFFSET -2.018814 -1.152008 1.108052
												CHANNELS 6 Xposition Yposition Zposition Xrotation Yrotation Zrotation
												End Site
												{
													OFFSET -188.809540 -114.533607 132.431396
												}
											}
										}
									}
								}
								JOINT mixamorig:RightHandIndex1
								{
									OFFSET -9.108284 -0.517868 2.259835
									CHANNELS 6 Xposition Yposition Zposition Xrotation Yrotation Zrotation
									JOINT mixamorig:RightHandIndex2
									{
										OFFSET -3.699989 0.000000 0.001215
										CHANNELS 6 Xposition Yposition Zposition Xrotation Yrotation Zrotation
										JOINT mixamorig:RightHandIndex3
										{
											OFFSET -2.850006 0.000031 -0.000522
											CHANNELS 6 Xposition Yposition Zposition Xrotation Yrotation Zrotation
											JOINT mixamorig:RightHandIndex4
											{
												OFFSET -2.772186 -0.000015 -0.000020
												CHANNELS 6 Xposition Yposition Zposition Xrotation Yrotation Zrotation
												End Site
												{
													OFFSET -277.218445 0.000000 -0.050231
												}
											}
										}
									}
								}
								JOINT mixamorig:RightHandMiddle1
								{
									OFFSET -9.532516 -0.000031 -0.000023
									CHANNELS 6 Xposition Yposition Zposition Xrotation Yrotation Zrotation
									JOINT mixamorig:RightHandMiddle2
									{
										OFFSET -3.700005 -0.000015 0.003713
										CHANNELS 6 Xposition Yposition Zposition Xrotation Yrotation Zrotation
										JOINT mixamorig:RightHandMiddle3
										{
											OFFSET -2.949974 0.000015 -0.002054
											CHANNELS 6 Xposition Yposition Zposition Xrotation Yrotation Zrotation
											JOINT mixamorig:RightHandMiddle4
											{
												OFFSET -2.946640 0.000000 -0.000156
												CHANNELS 6 Xposition Yposition Zposition Xrotation Yrotation Zrotation
												End Site
												{
													OFFSET -294.664337 0.000000 -0.113670
												}
											}
										}
									}
								}
								JOINT mixamorig:RightHandRing1
								{
									OFFSET -9.103600 -0.043076 -1.865134
									CHANNELS 6 Xposition Yposition Zposition Xrotation Yrotation Zrotation
									JOINT mixamorig:RightHandRing2
									{
										OFFSET -3.379288 0.000000 -0.001055
										CHANNELS 6 Xposition Yposition Zposition Xrotation Yrotation Zrotation
										JOINT mixamorig:RightHandRing3
										{
											OFFSET -2.889687 -0.000015 0.000379
											CHANNELS 6 Xposition Yposition Zposition Xrotation Yrotation Zrotation
											JOINT mixamorig:RightHandRing4
											{
												OFFSET -2.638809 -0.000015 0.000941
												CHANNELS 6 Xposition Yposition Zposition Xrotation Yrotation Zrotation
												End Site
												{
													OFFSET -263.880371 0.000000 0.516020
												}
											}
										}
									}
								}
								JOINT mixamorig:RightHandPinky1
								{
									OFFSET -8.076683 -0.486710 -3.806280
									CHANNELS 6 Xposition Yposition Zposition Xrotation Yrotation Zrotation
									JOINT mixamorig:RightHandPinky2
									{
										OFFSET -3.600014 -0.000015 -0.003747
										CHANNELS 6 Xposition Yposition Zposition Xrotation Yrotation Zrotation
										JOINT mixamorig:RightHandPinky3
										{
											OFFSET -2.099983 0.000000 -0.005739
											CHANNELS 6 Xposition Yposition Zposition Xrotation Yrotation Zrotation
											JOINT mixamorig:RightHandPinky4
											{
												OFFSET -2.115768 -0.000031 -0.003680
												CHANNELS 6 Xposition Yposition Zposition Xrotation Yrotation Zrotation
												End Site
												{
													OFFSET -211.577087 0.000000 -0.350686
												}
											}
										}
									}
								}
							}
						}
					}
				}
				JOINT mixamorig:LeftShoulder
				{
					OFFSET 4.570447 11.014725 -2.160855
					CHANNELS 6 Xposition Yposition Zposition Xrotation Yrotation Zrotation
					JOINT mixamorig:LeftArm
					{
						OFFSET 10.592371 -0.524597 -2.232119
						CHANNELS 6 Xposition Yposition Zposition Xrotation Yrotation Zrotation
						JOINT mixamorig:LeftForeArm
						{
							OFFSET 27.841532 -0.000031 0.000026
							CHANNELS 6 Xposition Yposition Zposition Xrotation Yrotation Zrotation
							JOINT mixamorig:LeftHand
							{
								OFFSET 28.328846 -0.000061 0.000022
								CHANNELS 6 Xposition Yposition Zposition Xrotation Yrotation Zrotation
								JOINT mixamorig:LeftHandThumb1
								{
									OFFSET 2.466141 -1.576172 2.681732
									CHANNELS 6 Xposition Yposition Zposition Xrotation Yrotation Zrotation
									JOINT mixamorig:LeftHandThumb2
									{
										OFFSET 3.217812 -1.872070 1.916482
										CHANNELS 6 Xposition Yposition Zposition Xrotation Yrotation Zrotation
										JOINT mixamorig:LeftHandThumb3
										{
											OFFSET 2.656029 -1.528778 1.514513
											CHANNELS 6 Xposition Yposition Zposition Xrotation Yrotation Zrotation
											JOINT mixamorig:LeftHandThumb4
											{
												OFFSET 2.020889 -1.154053 1.115139
												CHANNELS 6 Xposition Yposition Zposition Xrotation Yrotation Zrotation
												End Site
												{
													OFFSET 190.885437 -115.081749 130.048782
												}
											}
										}
									}
								}
								JOINT mixamorig:LeftHandIndex1
								{
									OFFSET 9.109314 -0.518021 2.259871
									CHANNELS 6 Xposition Yposition Zposition Xrotation Yrotation Zrotation
									JOINT mixamorig:LeftHandIndex2
									{
										OFFSET 3.699989 0.000000 -0.000322
										CHANNELS 6 Xposition Yposition Zposition Xrotation Yrotation Zrotation
										JOINT mixamorig:LeftHandIndex3
										{
											OFFSET 2.850006 0.000000 0.000352
											CHANNELS 6 Xposition Yposition Zposition Xrotation Yrotation Zrotation
											JOINT mixamorig:LeftHandIndex4
											{
												OFFSET 2.774864 -0.000031 -0.000027
												CHANNELS 6 Xposition Yposition Zposition Xrotation Yrotation Zrotation
												End Site
												{
													OFFSET 277.486267 0.000000 -0.009857
												}
											}
										}
									}
								}
								JOINT mixamorig:LeftHandMiddle1
								{
									OFFSET 9.533394 0.000061 0.000044
									CHANNELS 6 Xposition Yposition Zposition Xrotation Yrotation Zrotation
									JOINT mixamorig:LeftHandMiddle2
									{
										OFFSET 3.699989 -0.000015 -0.000231
										CHANNELS 6 Xposition Yposition Zposition Xrotation Yrotation Zrotation
										JOINT mixamorig:LeftHandMiddle3
										{
											OFFSET 2.949997 -0.000015 -0.000059
											CHANNELS 6 Xposition Yposition Zposition Xrotation Yrotation Zrotation
											JOINT mixamorig:LeftHandMiddle4
											{
												OFFSET 2.952896 0.000031 0.000063
												CHANNELS 6 Xposition Yposition Zposition Xrotation Yrotation Zrotation
												End Site
												{
													OFFSET 295.289337 0.000000 0.022810
												}
											}
										}
									}
								}
								JOINT mixamorig:LeftHandRing1
								{
									OFFSET 9.104523 -0.042999 -1.865074
									CHANNELS 6 Xposition Yposition Zposition Xrotation Yrotation Zrotation
									JOINT mixamorig:LeftHandRing2
									{
										OFFSET 3.150009 -0.000031 0.000043
										CHANNELS 6 Xposition Yposition Zposition Xrotation Yrotation Zrotation
										JOINT mixamorig:LeftHandRing3
										{
											OFFSET 2.949982 -0.000015 0.000040
											CHANNELS 6 Xposition Yposition Zposition Xrotation Yrotation Zrotation
											JOINT mixamorig:LeftHandRing4
											{
												OFFSET 2.644348 0.000000 0.000057
												CHANNELS 6 Xposition Yposition Zposition Xrotation Yrotation Zrotation
												End Site
												{
													OFFSET 264.434631 0.000000 0.012105
												}
											}
										}
									}
								}
								JOINT mixamorig:LeftHandPinky1
								{
									OFFSET 8.077789 -0.486847 -3.806259
									CHANNELS 6 Xposition Yposition Zposition Xrotation Yrotation Zrotation
									JOINT mixamorig:LeftHandPinky2
									{
										OFFSET 3.599953 0.000031 0.014727
										CHANNELS 6 Xposition Yposition Zposition Xrotation Yrotation Zrotation
										JOINT mixamorig:LeftHandPinky3
										{
											OFFSET 2.100021 0.000015 0.007705
											CHANNELS 6 Xposition Yposition Zposition Xrotation Yrotation Zrotation
											JOINT mixamorig:LeftHandPinky4
											{
												OFFSET 2.125504 0.000031 0.007517
												CHANNELS 6 Xposition Yposition Zposition Xrotation Yrotation Zrotation
												End Site
												{
													OFFSET 212.550781 0.000000 0.625752
												}
											}
										}
									}
								}
							}
						}
					}
				}
			}
		}
	}
	JOINT mixamorig:RightUpLeg
	{
		OFFSET -8.207787 -6.751648 -1.599560
		CHANNELS 6 Xposition Yposition Zposition Xrotation Yrotation Zrotation
		JOINT mixamorig:RightLeg
		{
			OFFSET -0.000002 -44.370117 0.345942
			CHANNELS 6 Xposition Yposition Zposition Xrotation Yrotation Zrotation
			JOINT mixamorig:RightFoot
			{
				OFFSET 0.000003 -44.423679 -3.043532
				CHANNELS 6 Xposition Yposition Zposition Xrotation Yrotation Zrotation
				JOINT mixamorig:RightToeBase
				{
					OFFSET -0.000002 -8.728671 10.710558
					CHANNELS 6 Xposition Yposition Zposition Xrotation Yrotation Zrotation
					JOINT mixamorig:RightToe_End
					{
						OFFSET -0.000001 -0.000679 9.278119
						CHANNELS 6 Xposition Yposition Zposition Xrotation Yrotation Zrotation
						End Site
						{
							OFFSET 0.000000 -0.067690 927.812134
						}
					}
				}
			}
		}
	}
	JOINT mixamorig:LeftUpLeg
	{
		OFFSET 8.207793 -6.751686 -1.599556
		CHANNELS 6 Xposition Yposition Zposition Xrotation Yrotation Zrotation
		JOINT mixamorig:LeftLeg
		{
			OFFSET -0.000004 -44.370014 0.346954
			CHANNELS 6 Xposition Yposition Zposition Xrotation Yrotation Zrotation
			JOINT mixamorig:LeftFoot
			{
				OFFSET -0.000001 -44.423672 -3.044401
				CHANNELS 6 Xposition Yposition Zposition Xrotation Yrotation Zrotation
				JOINT mixamorig:LeftToeBase
				{
					OFFSET -0.000002 -8.728669 10.710558
					CHANNELS 6 Xposition Yposition Zposition Xrotation Yrotation Zrotation
					JOINT mixamorig:LeftToe_End
					{
						OFFSET -0.000003 -0.000679 9.278133
						CHANNELS 6 Xposition Yposition Zposition Xrotation Yrotation Zrotation
						End Site
						{
							OFFSET 0.000000 -0.068021 927.813477
						}
					}
				}
			}
		}
	}
}
MOTION
Frames: 3
Frame Time: 0.033333
0.000006 104.270477 1.554256 0.000010 0.000003 -0.000113 -0.000005 10.181587 0.131522 0.000001 -0.000003 0.000084 -0.000000 9.893967 -1.470711 0.000001 0.000000 -0.000000 -0.000000 9.220802 -1.370642 0.000000 -0.000000 -0.000000 0.000001 16.740433 -2.049030 0.000000 -0.000000 -0.000000 0.000000 9.617859 1.685014 0.000000 0.000000 0.000000 0.000002 22.037384 7.501101 0.000000 -0.000000 0.000000 -4.569968 11.014880 -2.160881 0.000008 0.000001 -0.000038 -10.592857 -0.524658 -2.232053 71.928504 3.006306 -2.181591 -27.841543 0.000017 0.000531 117.927246 60.557263 -88.272723 -28.328814 0.000022 0.000022 -0.000317 -0.000045 0.000007 -2.464447 -1.573760 2.682359 -46.401375 -168.634994 -5.269293 -3.215285 -1.872611 1.924675 160.301275 30.598346 -4.610434 -2.654926 -1.527934 1.513104 152.054026 24.293841 -48.385627 -2.018830 -1.151999 1.108072 -0.000000 0.000002 0.000003 -9.108392 -0.517568 2.260125 95.325720 17.775228 -19.529280 -3.700080 0.000317 0.001485 91.781063 15.425321 -15.881457 -2.850080 0.000349 -0.000291 90.154993 12.082260 -12.113795 -2.772143 0.000001 -0.000022 -0.000001 -0.000003 -0.000002 -9.532578 0.000278 0.000234 91.859043 14.392979 -15.007036 -3.700070 0.000333 0.003959 91.699463 10.843831 -11.072243 -2.950065 0.000324 -0.001839 90.351395 10.975470 -11.035476 -2.946605 0.000004 -0.000165 0.000004 0.000001 0.000001 -9.103683 -0.042738 -1.864881 89.302381 14.965158 -14.742840 -3.379313 0.000330 -0.000831 91.175314 7.310270 -7.478535 -2.889755 0.000347 0.000630 92.182118 5.539350 -5.800457 -2.638794 -0.000014 0.000940 0.000002 0.000000 0.000000 -8.076737 -0.486370 -3.806034 84.014236 15.054890 -13.439986 -3.600034 0.000285 -0.003542 87.229657 6.834128 -6.180939 -2.100011 0.000316 -0.005519 87.006447 4.559167 -4.122195 -2.115765 -0.000054 -0.003684 0.000001 -0.000001 -0.000005 4.570446 11.014691 -2.160851 -0.000018 0.000010 -0.000021 10.592366 -0.524516 -2.232314 72.412791 2.221945 -1.626615 27.841843 0.000168 -0.000203 108.944092 -58.497640 76.213013 28.328848 -0.000029 0.000026 0.000020 -0.000089 -0.000000 2.466008 -1.576175 2.681891 -37.765209 153.270278 -10.511155 3.217775 -1.871693 1.916364 154.678335 -32.499833 -9.221668 2.656089 -1.528595 1.514444 146.282271 -26.963864 36.917425 2.020880 -1.154056 1.115144 0.000002 0.000003 0.000001 9.109388 -0.517832 2.259721 93.829362 -15.679673 16.736228 3.700047 0.000193 -0.000464 92.123802 -15.101772 15.683151 2.850054 0.000210 0.000213 91.187909 -13.216033 13.489056 2.774889 -0.000027 -0.000030 -0.000000 -0.000004 -0.000001 9.533461 0.000234 -0.000108 96.469674 -14.592388 16.308619 3.700044 0.000192 -0.000373 95.908273 -13.471997 14.919389 2.950056 0.000190 -0.000203 97.419692 -16.868773 19.170645 2.952854 -0.000015 0.000066 0.000001 0.000000 -0.000002 9.104608 -0.042809 -1.865221 95.228075 -14.016870 15.344788 3.150060 0.000230 -0.000088 100.557706 -12.877704 15.472737 2.950048 0.000209 -0.000053 105.159027 -14.208218 18.505416 2.644331 0.000045 0.000067 0.000001 -0.000002 0.000001 8.077848 -0.486714 -3.806406 81.471671 -17.101803 15.268111 3.599989 0.000206 0.014566 85.595678 -12.405527 11.960804 2.100049 0.000217 0.007540 90.736010 -11.263200 11.891685 2.125489 -0.000016 0.007517 0.000003 0.000001 -0.000000 -8.207786 -6.751667 -1.599560 -0.077001 -0.000003 0.000080 -0.000002 -44.370110 0.345938 0.153719 -0.000000 -0.000000 0.000000 -44.423679 -3.043532 -0.076700 0.000000 -0.000002 -0.000006 -8.728667 10.710559 -0.000009 -0.000000 -0.000000 -0.000001 -0.000679 9.278123 0.000000 -0.000000 -0.000000 8.207792 -6.751710 -1.599556 -0.074518 -0.000003 0.000081 -0.000002 -44.370014 0.346960 0.148822 0.000002 0.000000 -0.000001 -44.423664 -3.044403 -0.074314 0.000000 -0.000002 -0.000004 -8.728671 10.710558 0.000007 -0.000000 -0.000000 0.000000 -0.000680 9.278137 -0.000000 0.000000 -0.000001 
0.000006 104.270477 1.554256 0.000010 0.000003 -0.000113 -0.000005 10.181587 0.131522 0.000001 -0.000003 0.000084 -0.000000 9.893967 -1.470711 0.000001 0.000000 -0.000000 -0.000000 9.220802 -1.370642 0.000000 -0.000000 -0.000000 0.000001 16.740433 -2.049030 0.000000 -0.000000 -0.000000 0.000000 9.617859 1.685014 0.000000 0.000000 0.000000 0.000002 22.037384 7.501101 0.000000 -0.000000 0.000000 -4.569968 11.014880 -2.160881 0.000008 0.000001 -0.000038 -10.592872 -0.524686 -2.232020 71.559441 9.161030 -6.608991 -27.841543 0.000017 0.000552 118.618953 64.396615 -93.386479 -28.328829 0.000020 0.000025 -0.000318 -0.000044 0.000007 -2.464436 -1.573826 2.682370 -40.562178 -162.346712 8.328598 -3.215281 -1.872651 1.924686 158.941275 30.628429 -4.013497 -2.654938 -1.527905 1.513088 149.164132 25.883743 -42.388133 -2.018834 -1.152003 1.108059 -0.000002 -0.000001 0.000002 -9.108401 -0.517559 2.260112 94.005430 17.836976 -19.157224 -3.700079 0.000317 0.001490 91.917339 15.260050 -15.748167 -2.850082 0.000355 -0.000285 90.673589 11.789163 -11.926640 -2.772171 0.000004 -0.000022 0.000006 0.000002 -0.000000 -9.532598 0.000271 0.000237 91.700078 16.354394 -16.986971 -3.700074 0.000320 0.003970 92.884077 12.106417 -12.627210 -2.950071 0.000331 -0.001802 94.531655 11.602857 -12.543840 -2.946634 0.000017 -0.000147 0.000001 -0.000001 0.000001 -9.103704 -0.042758 -1.864882 88.793805 16.714291 -16.327248 -3.379309 0.000334 -0.000817 92.294912 7.757662 -8.091372 -2.889733 0.000374 0.000641 96.419349 5.476475 -6.175922 -2.638795 -0.000027 0.000936 0.000001 -0.000003 0.000000 -8.076757 -0.486384 -3.806041 83.829330 16.764925 -14.935356 -3.600030 0.000281 -0.003530 87.259628 6.533856 -5.899230 -2.100004 0.000326 -0.005516 88.850987 3.783659 -3.499367 -2.115763 -0.000053 -0.003677 0.000004 0.000001 -0.000005 4.570446 11.014691 -2.160851 -0.000018 0.000010 -0.000021 10.592359 -0.524545 -2.232287 71.445015 13.239604 -9.541926 27.841850 0.000144 -0.000207 110.676290 -62.482243 82.520679 28.328836 -0.000028 0.000027 0.000019 -0.000090 0.000001 2.466045 -1.576177 2.681906 -28.433005 155.540783 -30.782112 3.217789 -1.871717 1.916383 161.518019 -31.123451 2.519601 2.656113 -1.528640 1.514469 143.140643 -26.491855 52.762019 2.020891 -1.154068 1.115149 0.000005 -0.000000 0.000003 9.109365 -0.517848 2.259748 94.505605 -18.531244 20.005744 3.700045 0.000181 -0.000457 92.456009 -13.205250 13.796011 2.850048 0.000216 0.000201 91.359381 -9.826536 10.060005 2.774895 -0.000029 -0.000035 -0.000000 -0.000001 -0.000000 9.533450 0.000232 -0.000091 97.440585 -17.615056 20.008332 3.700036 0.000205 -0.000366 96.891267 -10.631910 11.981908 2.950056 0.000190 -0.000197 97.086385 -10.673734 12.076252 2.952854 -0.000015 0.000059 0.000002 0.000000 0.000002 9.104569 -0.042817 -1.865214 97.837467 -16.962783 19.415385 3.150035 0.000237 -0.000089 100.170045 -10.913789 13.031106 2.950030 0.000210 -0.000085 101.012139 -9.950449 12.061261 2.644332 0.000032 0.000057 0.000002 -0.000002 0.000001 8.077849 -0.486693 -3.806412 88.754668 -19.576101 19.752658 3.599994 0.000199 0.014582 89.270955 -15.642520 15.961998 2.100038 0.000197 0.007542 89.750366 -11.510839 11.938193 2.125491 0.000000 0.007524 0.000001 0.000005 -0.000001 -8.207786 -6.751667 -1.599560 -0.077001 -0.000003 0.000080 -0.000002 -44.370110 0.345938 0.153719 -0.000000 -0.000000 0.000000 -44.423679 -3.043532 -0.076700 0.000000 -0.000002 -0.000006 -8.728667 10.710559 -0.000009 -0.000000 -0.000000 -0.000001 -0.000679 9.278123 0.000000 -0.000000 -0.000000 8.207792 -6.751710 -1.599556 -0.074518 -0.000003 0.000081 -0.000002 -44.370014 0.346960 0.148822 0.000002 0.000000 -0.000001 -44.423664 -3.044403 -0.074314 0.000000 -0.000002 -0.000004 -8.728671 10.710558 0.000007 -0.000000 -0.000000 0.000000 -0.000680 9.278137 -0.000000 0.000000 -0.000001 
0.000006 104.270477 1.554256 0.000010 0.000003 -0.000113 -0.000005 10.181587 0.131522 0.000001 -0.000003 0.000084 -0.000000 9.893967 -1.470711 0.000001 0.000000 -0.000000 -0.000000 9.220802 -1.370642 0.000000 -0.000000 -0.000000 0.000001 16.740433 -2.049030 0.000000 -0.000000 -0.000000 0.000000 9.617859 1.685014 0.000000 0.000000 0.000000 0.000002 22.037384 7.501101 0.000000 -0.000000 0.000000 -4.569968 11.014880 -2.160881 0.000008 0.000001 -0.000038 -10.592867 -0.524683 -2.232022 71.038585 7.486119 -5.347340 -27.841537 0.000019 0.000544 119.491100 63.882623 -93.812177 -28.328821 0.000005 0.000025 -0.000320 -0.000045 0.000007 -2.464429 -1.573807 2.682367 -43.932859 -164.911721 0.649202 -3.215277 -1.872641 1.924696 158.148099 29.452688 -9.900842 -2.654939 -1.527890 1.513096 146.972953 26.474754 -41.838682 -2.018829 -1.152001 1.108065 -0.000006 0.000003 -0.000000 -9.108364 -0.517558 2.260109 93.297447 17.035315 -18.078607 -3.700074 0.000316 0.001494 91.295273 14.596181 -14.901806 -2.850085 0.000344 -0.000277 90.109327 11.057101 -11.077160 -2.772167 -0.000013 -0.000025 0.000008 0.000003 -0.000002 -9.532590 0.000268 0.000227 91.801492 15.845740 -16.491703 -3.700072 0.000317 0.003956 92.025543 11.653910 -11.972810 -2.950055 0.000347 -0.001815 93.365414 10.907341 -11.555777 -2.946641 0.000000 -0.000149 0.000001 0.000001 0.000000 -9.103678 -0.042764 -1.864891 88.870296 15.912259 -15.562128 -3.379321 0.000334 -0.000815 91.815330 7.905201 -8.176388 -2.889743 0.000360 0.000620 95.780139 5.359080 -5.977249 -2.638819 -0.000017 0.000940 0.000004 -0.000001 0.000001 -8.076726 -0.486390 -3.806033 84.046372 15.882483 -14.194687 -3.600019 0.000293 -0.003533 86.916309 6.972070 -6.277363 -2.099992 0.000332 -0.005510 88.793962 3.861723 -3.572073 -2.115776 -0.000054 -0.003680 0.000003 -0.000004 -0.000003 4.570446 11.014691 -2.160851 -0.000018 0.000010 -0.000021 10.592352 -0.524552 -2.232256 70.679603 15.894258 -11.306295 27.841848 0.000116 -0.000229 111.651128 -61.625962 82.596084 28.328833 -0.000027 0.000020 0.000021 -0.000088 -0.000000 2.466068 -1.576160 2.681906 -27.395062 155.442251 -32.761378 3.217817 -1.871733 1.916381 160.828566 -30.309948 6.103956 2.656108 -1.528674 1.514456 141.634409 -27.103879 50.799935 2.020899 -1.154087 1.115139 0.000002 0.000001 0.000002 9.109378 -0.517818 2.259753 94.355054 -17.707839 19.069350 3.700060 0.000193 -0.000486 93.243782 -12.587238 13.332207 2.850043 0.000221 0.000209 92.672669 -9.601053 10.056080 2.774905 -0.000029 -0.000026 -0.000002 -0.000002 -0.000001 9.533476 0.000251 -0.000077 96.982109 -17.179445 19.361732 3.700058 0.000214 -0.000367 96.998631 -10.783521 12.175330 2.950051 0.000203 -0.000201 97.019811 -10.601374 11.980597 2.952883 -0.000016 0.000072 0.000001 -0.000002 -0.000001 9.104607 -0.042802 -1.865207 97.305853 -16.676988 18.915126 3.150053 0.000243 -0.000108 100.558819 -11.685613 14.045499 2.950027 0.000198 -0.000060 101.685350 -10.332708 12.673154 2.644318 0.000045 0.000061 -0.000002 0.000001 -0.000000 8.077851 -0.486687 -3.806405 88.441306 -19.545389 19.616918 3.600006 0.000215 0.014591 89.052218 -16.667052 16.915365 2.100052 0.000192 0.007533 90.431240 -12.051211 12.627207 2.125493 -0.000028 0.007500 -0.000000 0.000002 -0.000002 -8.207786 -6.751667 -1.599560 -0.077001 -0.000003 0.000080 -0.000002 -44.370110 0.345938 0.153719 -0.000000 -0.000000 0.000000 -44.423679 -3.043532 -0.076700 0.000000 -0.000002 -0.000006 -8.728667 10.710559 -0.000009 -0.000000 -0.000000 -0.000001 -0.000679 9.278123 0.000000 -0.000000 -0.000000 8.207792 -6.751710 -1.599556 -0.074518 -0.000003 0.000081 -0.000002 -44.370014 0.346960 0.148822 0.000002 0.000000 -0.000001 -44.423664 -3.044403 -0.074314 0.000000 -0.000002 -0.000004 -8.728671 10.710558 0.000007 -0.000000 -0.000000 0.000000 -0.000680 9.278137 -0.000000 0.000000 -0.000001 
